<svg xmlns="http://www.w3.org/2000/svg" version="1.1" xmlns:xlink="http://www.w3.org/1999/xlink" width="1500" height="1500" viewBox="0 0 1500 1500"><rect width="1500" height="1500" x="0" y="0" id="background" stroke="transparent" fill="#282a36"></rect><svg xml:space="preserve" width="1000" height="1000" data-version="2" data-id="lg_pQV2UEbarMFY8t0Stx" viewBox="0 0 571 93" x="250" y="250"><rect width="100%" height="100%" fill="transparent"></rect><circle r="59.32" fill="#b0cbe8" transform="translate(51 46.5)scale(.7697)"></circle><path fill="#b0cbe8" d="M117.15 57.62q-2.54-2.48-4.01-5.9-1.48-3.42-1.48-7.26 0-3.89 1.48-7.34 1.47-3.45 4.01-5.99 2.53-2.6 5.9-4.1 3.36-1.5 7.25-1.5 3.9 0 7.29 1.5t5.93 4.1q2.54 2.54 4.04 5.96 1.51 3.42 1.51 7.32 0 3.89-1.51 7.31-1.5 3.42-4.04 5.9-2.6 2.54-6.02 4.04-3.42 1.51-7.31 1.51-3.84 0-7.2-1.51-3.36-1.5-5.84-4.04M134.67 65h18.11v-2.3h-12.62q2.36-1.18 4.39-2.9 2.04-1.71 3.45-3.95 1.66-2.42 2.57-5.34.92-2.92.92-6.1 0-4.37-1.69-8.24-1.68-3.86-4.51-6.75-2.89-2.83-6.76-4.51-3.86-1.69-8.23-1.69-4.36 0-8.2 1.69-3.83 1.68-6.66 4.51-2.89 2.89-4.55 6.75-1.65 3.87-1.65 8.24 0 4.36 1.65 8.2 1.66 3.83 4.55 6.66 2.83 2.89 6.66 4.55 3.84 1.65 8.2 1.65 1.07 0 2.16-.12t2.21-.35"></path><rect width="43.54" height="42.25" x="-21.77" y="-21.13" fill="none" rx="0" ry="0" transform="translate(131.51 44.84)"></rect><path fill="#b0cbe8" d="M178.09 59.27v2.66l.12 3.07h6.32v-2.13h-4.19v-20h-6.79v2.3h4.37v9.8q0 1.77-.74 3.27-.74 1.51-1.98 2.51-1.29 1.12-2.92 1.71-1.62.59-3.45.59-2.48-.12-3.75-1.51-1.26-1.38-1.38-3.33V42.87h-6.79v2.3h4.37v13.69q.12 2.95 2.01 4.78 1.88 1.83 5.13 1.83 3.24 0 5.87-1.68 2.62-1.68 3.8-4.52"></path><rect width="27.62" height="22.6" x="-13.81" y="-11.3" fill="none" rx="0" ry="0" transform="translate(171.22 54.67)"></rect><path fill="#b0cbe8" d="M209.72 65h6.55v-2.3h-4.37V42.87h-1.95q-.11 1.3-.17 2.63-.06 1.32-.06 2.56-1-2.3-3.48-3.98-2.48-1.68-5.96-1.68-2.48 0-4.57.91-2.1.92-3.69 2.45-1.59 1.6-2.48 3.72-.88 2.12-.88 4.42 0 2.42.88 4.49.89 2.06 2.48 3.66 1.59 1.59 3.69 2.47 2.09.89 4.57.89 1.77 0 3.33-.47 1.57-.47 2.8-1.3 1.18-.77 2.04-1.74.86-.97 1.27-2.04v2.72zm-9.44-20.24q1.89 0 3.54.68 1.65.68 2.95 1.92 1.24 1.23 1.97 2.92.74 1.68.74 3.62 0 1.95-.74 3.63-.73 1.68-2.03 2.92-1.24 1.24-2.89 1.92-1.65.68-3.54.68-1.89 0-3.48-.65-1.6-.65-2.83-1.83-1.36-1.24-2.13-2.95-.77-1.71-.77-3.72 0-1.88.68-3.54.68-1.65 1.92-2.89 1.18-1.29 2.89-2 1.71-.71 3.72-.71"></path><rect width="27.61" height="23.01" x="-13.8" y="-11.51" fill="none" rx="0" ry="0" transform="translate(202.97 54.4)"></rect><path fill="#b0cbe8" d="M220.4 65h11.38v-2.3h-4.36v-9.8q0-1.77.74-3.24.73-1.48 2.03-2.6 1.18-1.06 2.83-1.65 1.66-.59 3.48-.59 2.48.12 3.75 1.5 1.27 1.39 1.39 3.34V62.7h-4.6V65h11.38v-2.3h-4.36V49.01q-.12-2.95-2.01-4.78-1.89-1.83-5.13-1.83-3.31 0-5.9 1.71-2.6 1.71-3.78 4.48-.06-1-.12-1.8-.06-.79-.11-1.79l-.06-2.13h-6.2v2.3H225V62.7h-4.6z"></path><rect width="28.02" height="22.6" x="-14.01" y="-11.3" fill="none" rx="0" ry="0" transform="translate(234.91 54.2)"></rect><path fill="#b0cbe8" d="M257.69 65h7.25v-2.3h-4.84V45.23h6.85v-2.36h-6.85V28.48h-2.41v14.39h-5.14v2.36h5.14z"></path><rect width="14.4" height="36.52" x="-7.2" y="-18.26" fill="none" rx="0" ry="0" transform="translate(260.25 47.24)"></rect><path fill="#b0cbe8" d="M292.14 65h6.55v-2.3h-4.37V42.87h-1.94q-.12 1.3-.18 2.63-.06 1.32-.06 2.56-1-2.3-3.48-3.98-2.48-1.68-5.96-1.68-2.48 0-4.57.91-2.1.92-3.69 2.45-1.59 1.6-2.48 3.72-.88 2.12-.88 4.42 0 2.42.88 4.49.89 2.06 2.48 3.66 1.59 1.59 3.69 2.47 2.09.89 4.57.89 1.77 0 3.33-.47 1.57-.47 2.81-1.3 1.18-.77 2.03-1.74.86-.97 1.27-2.04v2.72zm-9.44-20.24q1.89 0 3.54.68 1.65.68 2.95 1.92 1.24 1.23 1.98 2.92.74 1.68.74 3.62 0 1.95-.74 3.63t-2.04 2.92q-1.24 1.24-2.89 1.92-1.65.68-3.54.68-1.89 0-3.48-.65t-2.83-1.83q-1.36-1.24-2.13-2.95-.76-1.71-.76-3.72 0-1.88.68-3.54.67-1.65 1.91-2.89 1.18-1.29 2.89-2 1.72-.71 3.72-.71"></path><rect width="27.61" height="23.01" x="-13.8" y="-11.51" fill="none" rx="0" ry="0" transform="translate(285.38 54.4)"></rect><path fill="#b0cbe8" d="M316.33 63.11q.83-.95 1.21-2.1.38-1.15.38-2.21 0-1.89-.79-3.01-.8-1.12-1.98-1.83-1.24-.7-2.62-1.15-1.39-.44-2.63-.97-1.18-.47-2.04-1.21-.85-.74-.85-2.04 0-1 .35-1.71.36-.7.89-1.18.59-.41 1.38-.62.8-.2 1.57-.2 1 0 1.89.23.88.24 1.71.71v3.07h2.24v-4.31q-.59-.53-1.3-.91-.71-.39-1.47-.68-.95-.3-1.66-.38-.7-.09-1.47-.09-1.06 0-2.3.38-1.24.38-2.18 1.15-.95.77-1.51 1.89-.56 1.12-.56 2.71 0 1.95.8 3.04.79 1.09 2.03 1.68 1.24.59 2.66 1.01 1.41.41 2.59.94 1.24.47 2.01 1.3.77.82.77 2.36 0 1.06-.39 1.8-.38.74-1.03 1.27-.71.53-1.53.79-.83.27-1.71.27-1.3 0-2.48-.21-1.18-.2-2.3-.91v-3.01h-2.19v4.31q1.36 1.29 3.16 1.74 1.8.44 3.69.44 2 0 3.39-.65 1.39-.65 2.27-1.71"></path><rect width="14.1" height="22.95" x="-7.05" y="-11.47" fill="none" rx="0" ry="0" transform="translate(311.37 54.5)"></rect><path fill="#b0cbe8" d="M321.82 65h11.39v-2.3h-4.37v-9.8q0-1.77.74-3.24.73-1.48 2.03-2.6 1.18-1.06 2.83-1.65 1.66-.59 3.49-.59 2.47.12 3.74 1.5 1.27 1.39 1.39 3.34V62.7h-4.6V65h11.38v-2.3h-4.36V49.01q-.12-2.95-2.01-4.78-1.89-1.83-5.13-1.83-3.36.06-5.9 1.71-2.54 1.65-3.78 4.48l.18-2.65V20.75h-6.79v2.3h4.37V62.7h-4.6z"></path><rect width="28.02" height="44.25" x="-14.01" y="-22.13" fill="none" rx="0" ry="0" transform="translate(336.33 43.38)"></rect><path fill="#b0cbe8" d="M371.67 65h29.39v-9.09h-2.31v6.79h-20.59V26h4.9v-2.3h-11.39V26h4.07v36.7h-4.07z"></path><rect width="29.39" height="41.3" x="-14.7" y="-20.65" fill="none" rx="0" ry="0" transform="translate(386.87 44.85)"></rect><path fill="#b0cbe8" d="M426.25 65h6.55v-2.3h-4.37V42.87h-1.95q-.11 1.3-.17 2.63-.06 1.32-.06 2.56-1-2.3-3.48-3.98-2.48-1.68-5.96-1.68-2.48 0-4.57.91-2.1.92-3.69 2.45-1.59 1.6-2.48 3.72-.88 2.12-.88 4.42 0 2.42.88 4.49.89 2.06 2.48 3.66 1.59 1.59 3.69 2.47 2.09.89 4.57.89 1.77 0 3.33-.47 1.57-.47 2.8-1.3 1.18-.77 2.04-1.74.86-.97 1.27-2.04v2.72zm-9.44-20.24q1.89 0 3.54.68 1.65.68 2.95 1.92 1.24 1.23 1.97 2.92.74 1.68.74 3.62 0 1.95-.74 3.63-.73 1.68-2.03 2.92-1.24 1.24-2.89 1.92-1.65.68-3.54.68-1.89 0-3.48-.65-1.6-.65-2.83-1.83-1.36-1.24-2.13-2.95-.77-1.71-.77-3.72 0-1.88.68-3.54.68-1.65 1.92-2.89 1.18-1.29 2.89-2 1.71-.71 3.72-.71"></path><rect width="27.61" height="23.01" x="-13.8" y="-11.51" fill="none" rx="0" ry="0" transform="translate(419.5 54.4)"></rect><path fill="#b0cbe8" d="M436.93 62.7V65h6.55v-5.14q.35 1.07 1.24 2.04.88.97 2.12 1.74 1.18.83 2.74 1.3 1.57.47 3.34.47 2.42 0 4.54-.89 2.12-.88 3.72-2.47 1.53-1.6 2.44-3.66.92-2.07.92-4.49 0-2.36-.92-4.48-.91-2.12-2.44-3.66-1.6-1.53-3.72-2.45-2.12-.91-4.54-.91-1.71 0-3.25.47-1.53.47-2.77 1.24-1.24.83-2.07 1.8-.82.97-1.18 1.98.06-.89.06-1.39V20.75h-6.55v2.3h4.13V62.7zm15.99-17.94q1.88 0 3.54.68 1.65.68 2.89 1.86 1.3 1.24 2 2.95.71 1.71.71 3.65 0 1.95-.71 3.6-.7 1.66-1.88 2.89-1.3 1.24-2.95 1.95-1.66.71-3.6.71-1.89 0-3.54-.68-1.66-.68-2.89-1.92-1.3-1.24-2.04-2.92t-.74-3.63q0-1.88.68-3.54.68-1.65 1.92-2.89 1.24-1.29 2.92-2t3.69-.71"></path><rect width="27.61" height="44.66" x="-13.8" y="-22.33" fill="none" rx="0" ry="0" transform="translate(451.24 43.58)"></rect><path fill="#b0cbe8" d="M482.18 63.11q.83-.95 1.21-2.1.38-1.15.38-2.21 0-1.89-.79-3.01-.8-1.12-1.98-1.83-1.24-.7-2.63-1.15-1.38-.44-2.62-.97-1.18-.47-2.04-1.21-.85-.74-.85-2.04 0-1 .35-1.71.36-.7.89-1.18.59-.41 1.38-.62.8-.2 1.57-.2 1 0 1.89.23.88.24 1.71.71v3.07h2.24v-4.31q-.59-.53-1.3-.91-.71-.39-1.47-.68-.95-.3-1.66-.38-.7-.09-1.47-.09-1.06 0-2.3.38-1.24.38-2.19 1.15-.94.77-1.5 1.89-.56 1.12-.56 2.71 0 1.95.8 3.04.79 1.09 2.03 1.68 1.24.59 2.66 1.01 1.41.41 2.59.94 1.24.47 2.01 1.3.77.82.77 2.36 0 1.06-.39 1.8-.38.74-1.03 1.27-.71.53-1.53.79-.83.27-1.72.27-1.29 0-2.47-.21-1.18-.2-2.3-.91v-3.01h-2.19v4.31q1.36 1.29 3.16 1.74 1.8.44 3.69.44 2 0 3.39-.65 1.39-.65 2.27-1.71"></path><rect width="14.1" height="22.95" x="-7.05" y="-11.47" fill="none" rx="0" ry="0" transform="translate(477.22 54.5)"></rect><path fill="#b0cbe8" d="M505.37 65h11.38v-2.3h-4.36q1.83-4.25 3.3-7.73 1.48-3.48 3.25-7.73h16.64q1.65 3.89 3.27 7.73l3.27 7.73h-4.3V65h11.33v-2.3h-4.55q-4.36-10.33-8.7-20.45-4.34-10.12-8.64-20.44-4.31 10.32-8.68 20.44-4.36 10.12-8.67 20.45h-4.54zm21.3-36.11q.17-.47.32-.83.15-.35.27-.88l.53 1.71 6.78 16.05h-14.63q1.65-3.96 3.39-8 1.74-4.04 3.34-8.05"></path><rect width="43.78" height="43.19" x="-21.89" y="-21.59" fill="none" rx="0" ry="0" transform="translate(527.76 43.9)"></rect><path fill="#b0cbe8" d="M553.28 65h11.38v-2.3h-4.42V42.87h-6.96v2.3h4.54V62.7h-4.54zM561 35.02q0-.82-.59-1.38-.59-.56-1.35-.56-.71 0-1.3.56-.59.56-.59 1.38 0 .83.59 1.39.59.56 1.3.56.76 0 1.35-.56.59-.56.59-1.39"></path><rect width="11.38" height="31.92" x="-5.69" y="-15.96" fill="none" rx="0" ry="0" transform="translate(559.47 49.54)"></rect><path fill="#282a36" d="M30.09 55.57q-1.85-1.81-2.92-4.3-1.08-2.5-1.08-5.29 0-2.84 1.08-5.35 1.07-2.52 2.92-4.37 1.85-1.89 4.3-2.99 2.45-1.09 5.29-1.09t5.31 1.09q2.47 1.1 4.32 2.99 1.85 1.85 2.95 4.34 1.09 2.5 1.09 5.34 0 2.83-1.09 5.33-1.1 2.49-2.95 4.3-1.89 1.85-4.39 2.94-2.49 1.1-5.33 1.1-2.79 0-5.24-1.1-2.45-1.09-4.26-2.94m12.77 5.37h13.2v-1.67h-9.2q1.72-.86 3.2-2.11 1.49-1.25 2.52-2.88 1.2-1.77 1.87-3.89.67-2.13.67-4.45 0-3.19-1.23-6-1.23-2.82-3.29-4.93-2.11-2.06-4.92-3.29-2.82-1.22-6-1.22t-5.98 1.22q-2.79 1.23-4.86 3.29-2.1 2.11-3.31 4.93-1.2 2.81-1.2 6 0 3.18 1.2 5.97 1.21 2.8 3.31 4.86 2.07 2.11 4.86 3.31 2.8 1.21 5.98 1.21.77 0 1.57-.09.79-.09 1.61-.26" paint-order="stroke"></path><rect width="31.73" height="30.79" x="-15.87" y="-15.39" fill="none" rx="0" ry="0" transform="translate(40.7 46.4)"></rect><path fill="#282a36" d="M59.07 60.94h21.42v-6.62h-1.68v4.95H63.8V32.52h3.57v-1.68h-8.3v1.68h2.97v26.75h-2.97z" paint-order="stroke"></path><rect width="21.42" height="30.1" x="-10.71" y="-15.05" fill="none" rx="0" ry="0" transform="translate(70.28 46.39)"></rect></svg></svg>